<?xml version="1.0" encoding="UTF-8" standalone="no"?>
<svg
   xmlns:dc="http://purl.org/dc/elements/1.1/"
   xmlns:cc="http://creativecommons.org/ns#"
   xmlns:rdf="http://www.w3.org/1999/02/22-rdf-syntax-ns#"
   xmlns:svg="http://www.w3.org/2000/svg"
   xmlns="http://www.w3.org/2000/svg"
   xmlns:sodipodi="http://sodipodi.sourceforge.net/DTD/sodipodi-0.dtd"
   xmlns:inkscape="http://www.inkscape.org/namespaces/inkscape"
   width="100"
   height="33"
   viewBox="0 0 26.458333 8.7312497"
   version="1.1"
   id="svg8"
   inkscape:version="1.0.2-2 (e86c870879, 2021-01-15)"
   sodipodi:docname="Banco_de_Bogotá_logo.svg">
  <title
     id="title49">BAC Credomatic logo</title>
  <defs
     id="defs2" />
  <sodipodi:namedview
     id="base"
     pagecolor="#ffffff"
     bordercolor="#666666"
     borderopacity="1.0"
     inkscape:pageopacity="0.0"
     inkscape:pageshadow="2"
     inkscape:zoom="5.6568542"
     inkscape:cx="43.006858"
     inkscape:cy="6.412581"
     inkscape:document-units="mm"
     inkscape:current-layer="layer1"
     inkscape:document-rotation="0"
     showgrid="false"
     units="px"
     showborder="true"
     inkscape:showpageshadow="false"
     inkscape:window-width="1366"
     inkscape:window-height="745"
     inkscape:window-x="-8"
     inkscape:window-y="-8"
     inkscape:window-maximized="1" />
  <metadata
     id="metadata5">
    <rdf:RDF>
      <cc:Work
         rdf:about="">
        <dc:format>image/svg+xml</dc:format>
        <dc:type
           rdf:resource="http://purl.org/dc/dcmitype/StillImage" />
        <dc:title>BAC Credomatic logo</dc:title>
        <dc:date>mayo 2021</dc:date>
        <cc:license
           rdf:resource="http://scripts.sil.org/OFL" />
      </cc:Work>
      <cc:License
         rdf:about="http://scripts.sil.org/OFL">
        <cc:permits
           rdf:resource="http://scripts.sil.org/pub/OFL/Reproduction" />
        <cc:permits
           rdf:resource="http://scripts.sil.org/pub/OFL/Distribution" />
        <cc:permits
           rdf:resource="http://scripts.sil.org/pub/OFL/Embedding" />
        <cc:permits
           rdf:resource="http://scripts.sil.org/pub/OFL/DerivativeWorks" />
        <cc:requires
           rdf:resource="http://scripts.sil.org/pub/OFL/Notice" />
        <cc:requires
           rdf:resource="http://scripts.sil.org/pub/OFL/Attribution" />
        <cc:requires
           rdf:resource="http://scripts.sil.org/pub/OFL/ShareAlike" />
        <cc:requires
           rdf:resource="http://scripts.sil.org/pub/OFL/DerivativeRenaming" />
        <cc:requires
           rdf:resource="http://scripts.sil.org/pub/OFL/BundlingWhenSelling" />
      </cc:License>
    </rdf:RDF>
  </metadata>
  <g
     inkscape:label="Capa 1"
     inkscape:groupmode="layer"
     id="layer1">
    <g
       id="#c8102fff"
       transform="matrix(0.01654227,0,0,0.01654227,0.08923394,0.10677037)">
      <path
         id="path4"
         style="fill:#c8102f;fill-opacity:1;stroke-width:1.33333"
         d="M 455.74805,0.1328125 0,122.93164 v 206 L 455.76172,132.67969 Z M 2001.5137,10.777344 c -20.6001,0.08126 -41.1892,2.047758 -61.4063,5.902344 -37.9066,7.333333 -74.9202,24.012812 -101.9336,52.132812 -31.4533,31.96 -47.7739,75.69458 -54.9472,119.28125 -6.1334,37.42667 -6.613,75.59971 -3.9864,113.37305 3.4267,44.26666 12.6124,89.31984 35.6524,127.83984 13,21.72 30.7874,40.65372 52.1074,54.40039 36.0933,23.46667 79.8263,31.74703 122.293,32.70703 44.7466,0.89334 90.067,-7.56088 130.707,-26.57422 v -94.97265 c -27.16,11.29333 -56.1207,18.13255 -85.334,21.19922 -23.9467,2.02666 -48.4662,1.46739 -71.8262,-4.58594 -18.8533,-4.85333 -36.4259,-15.99995 -46.9726,-32.61328 -14.9467,-23.22667 -19.0413,-51.34732 -21.3613,-78.33399 -2.1334,-32.94666 -2.2524,-66.19898 2.3476,-98.95898 3.6267,-23.73333 10.5857,-48.54836 27.959,-66.06836 16.2,-16.52 39.6534,-22.98615 62.0801,-25.13281 29.7733,-2.61334 59.8409,-0.41211 89.2676,4.58789 13.8933,2.45333 27.7059,5.69258 40.9726,10.58594 -0.053,-31.533349 0,-63.080291 -0.025,-94.626958 -36.8987,-13.58 -76.2664,-20.297711 -115.5937,-20.142578 z m -379.6602,7.623047 c -43.6133,0.106666 -87.2402,0.0124 -130.8535,0.03906 -56.4,163.253339 -112.8138,326.493099 -169.1738,489.759769 38.6933,0.0667 77.373,-0.0123 116.0664,0.041 9.3333,-31.92 18.6269,-63.86744 27.9336,-95.80078 58.9066,0 117.8277,0.013 176.7343,-0.0137 9.3734,31.90667 18.612,63.85344 27.9454,95.77344 40.88,0.0533 81.7602,6.8e-4 122.6269,0.0273 C 1735.9995,344.95989 1679.1335,181.60039 1621.8535,18.400391 Z m -572.8008,0.03711 c -34.3433,0.0083 -68.68536,0.02862 -103.02536,0.002 -0.0533,163.266669 -0.027,326.520439 -0.0137,489.787109 h 166.01366 c 26.6534,-0.13333 53.452,0.85349 79.9454,-2.83984 27.48,-3.68 55.0807,-11.51912 78.1074,-27.42578 17.4266,-11.93334 31.3606,-28.85492 39.6406,-48.29492 10.5333,-24.34667 13.0395,-51.44003 11.4395,-77.69336 -1.6534,-24.38667 -9.1611,-49.18591 -25.4278,-67.89258 -14.6266,-17.28 -35.492,-28.0394 -57.0254,-34.05274 1.9867,-2 4.7329,-2.85375 7.2129,-4.09375 14.92,-7.21333 28.2666,-17.90612 37.9199,-31.43945 12.0134,-16.57333 18.1204,-36.84075 19.7071,-57.10742 1.88,-24.58667 -1.161,-50.16091 -12.6543,-72.267581 -10.3334,-20.240001 -27.7463,-36.398672 -47.9063,-46.638672 -27.96,-14.413334 -59.7862,-19.17461 -90.9062,-19.97461 -34.34,-0.07333 -68.684,-0.07669 -103.0274,-0.06836 z m 507.334,83.001949 c 4.9867,18.08 9.1737,36.37448 14.0137,54.50782 15.3733,54.82666 30.7337,109.65218 46.0937,164.49218 -41.2933,0.0133 -82.5875,0.0133 -123.8808,0 9.8533,-34.02666 19.8394,-68.01205 29.7461,-102.02539 8.64,-30.09333 17.9467,-60.01466 25.6933,-90.36133 2.4667,-8.50666 4.1875,-17.25328 7.1075,-25.61328 z m -457.9004,9.66797 c 15.6467,-0.002 31.2928,0.005 46.9395,0.0254 14.0666,0.49334 29.4816,2.54646 40.2949,12.45313 10.1067,9.16 12.9057,23.45414 13.3457,36.49414 0.24,13.21333 -0.8398,27.31943 -8.1465,38.74609 -5.84,9.24 -16.1606,14.66779 -26.6406,16.81445 -11.0133,2.56003 -22.3723,1.8129 -33.5723,1.90626 -26.3866,0 -52.7598,0.0133 -79.1465,0 -0.013,-35.46669 -3e-4,-70.9474 -0.014,-106.41407 15.6466,-0.0133 31.2928,-0.0237 46.9394,-0.0254 z m -608.0195,13.38477 -0.0117,383.94726 193.03906,-0.0137 70.08008,-173.30664 z m -34.69336,46 L 0,366.75977 V 594.78516 L 455.6543,316.49219 Z m 643.33396,128.61523 c 15.8534,-0.003 31.7053,0.006 47.5586,0.0527 16.6533,0.36 34.8134,1.73346 48.3867,12.46679 12.04,9.57334 15.8533,25.70672 16.3067,40.38672 0.36,15.37334 -0.5192,31.81229 -8.8125,45.26563 -6.0267,9.84 -16.7468,15.78724 -27.7735,18.2539 -14.8666,3.54667 -30.2674,2.52003 -45.414,2.69336 -25.9334,-0.0133 -51.8792,0.0127 -77.8125,-0.0273 0.013,-39.69334 0.013,-79.37307 0,-119.06641 15.8533,-0.007 31.7072,-0.022 47.5605,-0.0254 z M 455.77344,357.01172 0,635.47852 v 48.30664 l 281.74805,-0.33204 174.02539,-167.45507 z m 175.12109,186.33398 -153.06641,0.0664 -146.10742,140.41406 299.16016,-0.0547 z m 372.83597,5.94532 c -7.88785,-0.11282 -15.78019,0.80997 -23.41019,2.86914 -12.26666,3.30666 -23.41286,11.29388 -29.51953,22.56054 -9.13333,16.49334 -9.82687,36.10519 -8.54687,54.47852 1.34666,17.33333 6.92002,36.13404 21.69336,46.7207 8.44,6.57334 19.21356,8.1061 29.24023,10.7461 h 15.1328 c 8.7333,-2.50667 17.8795,-3.69243 26.1328,-7.73243 -0.013,-8.62666 -0.026,-17.24018 0.014,-25.85351 -14.16,5.32 -30.1869,8.4537 -44.9336,3.70703 -8.85333,-2.81333 -13.5606,-11.86747 -14.94726,-20.49414 -2.02667,-12.49333 -2.10607,-25.36018 -0.0527,-37.85352 1.33334,-9.05333 6.88091,-18.25294 16.26758,-20.59961 14.05328,-3.6 28.99968,-1.42715 42.75968,2.51954 0,-8.57336 -0.013,-17.13175 0,-25.70508 -9.555,-3.36 -19.6886,-5.21824 -29.83,-5.36328 z m 1085.3535,0.0156 c -6.1699,-0.0695 -12.3443,0.48703 -18.4043,1.70703 -9.72,1.97334 -19.1736,6.19896 -26.2402,13.26563 -8.64,8.26666 -13.2137,19.84039 -15.3204,31.40039 -2.4666,14.29333 -2.3066,28.99963 0,43.29297 2.28,13.42666 7.8812,27.0283 18.8145,35.68164 8.6667,7.44 20.1332,9.31838 30.8398,12.01172 h 14.8399 c 8.84,-2.36 18.0267,-3.70568 26.3867,-7.65235 v -25.94726 c -12.96,5.05333 -27.3458,7.73283 -41.1191,4.82617 -6.3334,-1.32 -12.3069,-5.15847 -15.1602,-11.0918 -4.8,-9.45333 -4.8547,-20.41344 -5.0547,-30.77344 0.32,-10.14666 0.5342,-21.12093 6.1875,-29.96093 4.1333,-6.33334 11.8271,-9.1067 19.0938,-9.69336 11.8933,-1 24.0004,0.51974 35.4004,4.0664 -0.027,-8.58666 -0.027,-17.17276 0,-25.74609 -9.7084,-3.41667 -19.9805,-5.27083 -30.2637,-5.38672 z m -599.7637,0.18945 c -0.9014,0.003 -1.7992,0.0154 -2.6933,0.0371 -14.04,0.2 -29.1471,3.41336 -39.4004,13.69336 -10.7467,10.65334 -14.3596,26.2125 -15.5996,40.8125 -1.1467,16.78667 -0.8527,34.13417 4.7207,50.1875 3.7066,10.69334 11.1454,20.34612 21.4121,25.43946 7.16,3.94666 15.4135,4.76 23.1601,7 h 16.9199 c 9.36,-2.36 19.3612,-3.54521 27.5079,-9.17188 11.4533,-7.29333 17.4925,-20.45406 19.8925,-33.41406 2.9067,-15.86667 2.9471,-32.23922 0.7871,-48.19922 -2,-13.36 -6.9876,-27.29412 -18.041,-35.80078 -10.9375,-8.4625 -25.1445,-10.6315 -38.666,-10.58399 z m -158.8789,2.04297 c -8.9617,0.01 -17.9209,0.0415 -26.8809,0.0215 -0.013,43.98666 -3e-4,87.98599 -0.014,131.97265 18.4,0 36.7995,0.0943 55.2129,-0.0391 15.92,-0.41333 33.134,-5.92036 42.414,-19.70703 9.8,-14.25333 11.2536,-32.26641 11.2403,-49.06641 -0.4267,-16.61333 -2.5339,-34.86703 -14.1739,-47.70703 -10.2133,-11.41333 -26.1995,-14.94636 -40.9062,-15.37305 -8.9667,-0.1 -17.9309,-0.11156 -26.8926,-0.10156 z m -223.6953,0.008 c -15.0667,0.0267 -30.1326,-0.013 -45.1992,0.0137 0.013,44 3e-4,88 0.014,132 10,-0.0133 19.9864,-3.4e-4 29.9864,-0.0137 0.013,-16.36003 3e-4,-32.73373 0.014,-49.09376 6.0934,-0.0267 12.1997,0.0143 18.293,-0.0391 7.8133,16.32 15.3727,32.74581 23.0527,49.11914 11.6536,0.0533 23.3213,-0.0123 34.9747,0.041 -10.2,-18.30667 -20.428,-36.58753 -30.668,-54.88086 5.96,-2.18667 11.5335,-5.76008 15.1601,-11.08008 6.7867,-9.73333 7.6266,-22.29276 6.2266,-33.74609 -1.1867,-9.54667 -5.9729,-18.96024 -14.2129,-24.24024 -11.0533,-7.28 -24.8006,-8.13343 -37.6406,-8.08007 z m 81.7207,0 c -0.053,44 -0.014,88.00033 -0.014,132.01367 29.9334,-0.0133 59.8811,0.0127 89.8145,-0.0274 0.24,-8.65333 0.585,-17.31932 0.625,-25.97265 -20.1467,-0.0133 -40.2928,-3.4e-4 -60.4395,-0.0137 -0.013,-9.92003 -0.013,-19.83977 0,-29.75977 16.2134,-0.0133 32.4277,-0.0133 48.6543,0 0.013,-7.93333 0,-15.85378 0,-23.78711 -16.2133,-0.0133 -32.4409,0.0133 -48.6543,0 -0.013,-8.66667 -0.013,-17.33299 0,-25.98633 19.28,-0.08 38.5602,0.10625 57.8535,-0.0937 -0.4133,-8.77333 -0.5072,-17.54664 -0.5605,-26.30664 -29.0933,-0.13333 -58.186,-0.0131 -87.2793,-0.0664 z m 581.7461,0 c -15.24,43.97333 -30.3863,87.98632 -45.5996,131.98632 10.5333,0.0267 21.0663,0.0397 31.5996,-0.0137 2.3867,-8.52 4.8936,-17.01286 7.3203,-25.51953 15.8667,0 31.7196,0.013 47.5996,-0.0137 2.6,8.46666 4.6009,17.16081 7.5742,25.49414 11.0267,0.2 22.0792,0.0131 33.1192,0.0664 -15.3867,-44.00003 -30.7328,-88 -46.1328,-132 -11.8267,0.0133 -23.6538,0.0133 -35.4805,0 z m 177.5332,0 c -33.16,0.0267 -66.3189,3.3e-4 -99.4922,0.0137 -0.1867,8.96 -0.4007,17.9189 -0.7207,26.8789 11.7733,0.0133 23.561,3.4e-4 35.3477,0.0137 0.013,35.04003 -0.015,70.06743 0.012,105.10743 10.0666,-0.0133 20.1348,-0.0133 30.2148,0 0.013,-35.04 -0.015,-70.08074 0.012,-105.10743 11.7734,-0.0133 23.561,-3.3e-4 35.3477,-0.0137 -0.16,-8.96 -0.374,-17.93257 -0.7207,-26.89257 z m 23.3867,0 c -0.053,44 -0.014,87.99997 -0.014,132 10.1467,-0.0267 20.2935,0.0806 30.4668,-0.0527 -0.067,-43.97333 -0.012,-87.94693 -0.039,-131.93359 -10.1467,-0.0133 -20.2808,-3.4e-4 -30.4141,-0.0137 z m -385.543,0.002 c -5.4933,0.002 -10.984,0.0117 -16.4707,0.0117 -0.013,44 -0.013,87.9863 0,131.98633 8.8,0.0133 17.6144,0.0133 26.4278,0 -0.1467,-27.14669 0.3327,-54.29441 -0.2539,-81.42774 10.4533,27.21333 21.3203,54.28073 32.0136,81.41406 6.6667,0.0267 13.32,0.0267 20,0 10.76,-27.28 21.6937,-54.50651 32.3204,-81.83984 -1.0134,27.26667 -0.3079,54.57349 -0.5079,81.85352 9.0934,0.0133 18.2004,3.3e-4 27.3204,0.0137 0.013,-44 3e-4,-88 0.014,-132 -10.9733,-0.0133 -21.9326,0 -32.8926,0 -11.8533,30.18666 -24.3465,60.13185 -35.8398,90.47851 -11.4533,-30.32 -23.8006,-60.29312 -35.6406,-90.45312 -5.5,-0.0333 -10.9969,-0.0388 -16.4903,-0.0371 z m 202.1563,22.33203 c 5.1333,19.74667 10.7876,39.34667 16.2676,59 -11.0534,0 -22.1069,0.0133 -33.1602,0 5.64,-19.66667 11.6526,-39.22667 16.8926,-59 z m -298.0313,2.32031 c 6.8483,-0.10706 13.7468,1.13281 18.7793,5.94531 6.6,7.32 7.0394,17.84084 7.6661,27.1875 0,12.90667 0.9991,26.48029 -4.1875,38.62696 -2.68,6.46666 -9.3192,10.42633 -16.1192,10.98633 -8.5467,0.81333 -18.6125,0.89354 -25.1992,-5.45313 -6.68,-7.17333 -7.3473,-17.61453 -8.0273,-26.89453 -0.3067,-12.38667 -0.7868,-25.22615 3.2265,-37.13281 2.12,-6.50667 7.9458,-11.49414 14.7324,-12.49414 2.9125,-0.39584 6.0161,-0.72282 9.1289,-0.77149 z m -386.8086,0.2168 c 3.7869,-0.0183 7.5747,0.002 11.3614,0.18164 5,0.21333 10.4663,2.49286 12.2929,7.51953 2.0534,6 1.906,12.72146 0.3457,18.82813 -1.3466,5.44 -6.7867,8.5195 -12.08,8.82617 -7.7467,0.53333 -15.519,0.0799 -23.2657,0.22656 -0.013,-11.85333 -3e-4,-23.6932 -0.014,-35.5332 3.7866,0.0267 7.5727,-0.0305 11.3593,-0.0488 z m 246.2364,1.93945 c 5.1983,-0.04 10.3773,0.14219 15.4707,1.24219 7.88,1.68 13.1742,8.92021 14.5742,16.54687 2.6,12.64 2.3198,25.75954 0.7598,38.51954 -1.1067,8.12 -4.4797,17.50671 -12.9864,20.38671 -10.7733,3.48 -22.2937,1.54803 -33.4004,2.05469 -0.013,-26.21333 -0.013,-52.44094 0,-78.6543 5.1667,0.20669 10.3837,-0.0557 15.5821,-0.0957 z"
         transform="scale(0.74999999)" />
    </g>
  </g>
</svg>
